<svg xmlns="http://www.w3.org/2000/svg" viewBox="0 0 1440 320"><path fill="#0099ff" fill-opacity="1" d="M0,192L24,208C48,224,96,256,144,266.7C192,277,240,267,288,224C336,181,384,107,432,106.7C480,107,528,181,576,218.7C624,256,672,256,720,256C768,256,816,256,864,245.3C912,235,960,213,1008,186.7C1056,160,1104,128,1152,96C1200,64,1248,32,1296,64C1344,96,1392,192,1416,240L1440,288L1440,320L1416,320C1392,320,1344,320,1296,320C1248,320,1200,320,1152,320C1104,320,1056,320,1008,320C960,320,912,320,864,320C816,320,768,320,720,320C672,320,624,320,576,320C528,320,480,320,432,320C384,320,336,320,288,320C240,320,192,320,144,320C96,320,48,320,24,320L0,320Z"></path></svg>